<?xml version="1.0" encoding="utf-8"?>
<!-- Generator: Adobe Illustrator 24.1.3, SVG Export Plug-In . SVG Version: 6.00 Build 0)  -->
<svg version="1.1" id="Layer_1" xmlns="http://www.w3.org/2000/svg" xmlns:xlink="http://www.w3.org/1999/xlink" x="0px" y="0px"
	 viewBox="0 0 442.37 442.37" style="enable-background:new 0 0 442.37 442.37;" xml:space="preserve">
<style type="text/css">
	.st0{fill-rule:evenodd;clip-rule:evenodd;fill:#333333;}
	.st1{fill-rule:evenodd;clip-rule:evenodd;fill:#679E63;}
	.st2{clip-path:url(#XMLID_3_);}
	.st3{fill:none;}
	.st4{fill:url(#SVGID_1_);}
	.st5{fill:url(#SVGID_2_);}
	.st6{fill:url(#SVGID_3_);}
	.st7{fill:url(#SVGID_4_);}
	.st8{fill:url(#SVGID_5_);}
	.st9{fill:url(#SVGID_6_);}
</style>
<g>
	<path class="st0" d="M94.94,197.29c0-1.84-0.97-3.53-2.56-4.45l-42.35-24.38c-0.72-0.42-1.52-0.64-2.33-0.67c-0.07,0-0.38,0-0.44,0
		c-0.81,0.03-1.61,0.25-2.34,0.67L2.56,192.85c-1.58,0.91-2.56,2.6-2.56,4.45l0.09,65.64c0,0.91,0.47,1.76,1.28,2.21
		c0.79,0.47,1.76,0.47,2.54,0l25.17-14.41c1.59-0.95,2.56-2.61,2.56-4.44v-30.66c0-1.83,0.97-3.52,2.55-4.43l10.72-6.17
		c0.8-0.46,1.67-0.69,2.56-0.69c0.87,0,1.77,0.23,2.54,0.69l10.71,6.17c1.59,0.91,2.56,2.6,2.56,4.43v30.66
		c0,1.82,0.98,3.5,2.56,4.44l25.16,14.41c0.79,0.47,1.77,0.47,2.56,0c0.78-0.45,1.27-1.3,1.27-2.21L94.94,197.29z"/>
	<path class="st0" d="M298.73,107.07c-0.79-0.44-1.76-0.43-2.54,0.03c-0.78,0.46-1.26,1.3-1.26,2.21v65c0,0.64-0.34,1.23-0.89,1.55
		c-0.55,0.32-1.24,0.32-1.79,0l-10.61-6.11c-1.58-0.91-3.53-0.91-5.11,0l-42.37,24.45c-1.58,0.91-2.56,2.6-2.56,4.43v48.92
		c0,1.83,0.98,3.52,2.56,4.43l42.37,24.47c1.58,0.91,3.53,0.91,5.12,0l42.38-24.47c1.58-0.92,2.56-2.6,2.56-4.43V125.61
		c0-1.85-1-3.56-2.62-4.47L298.73,107.07z M294.8,231.47c0,0.46-0.24,0.88-0.64,1.11l-14.55,8.39c-0.39,0.23-0.88,0.23-1.28,0
		l-14.55-8.39c-0.4-0.23-0.64-0.65-0.64-1.11v-16.8c0-0.46,0.24-0.88,0.64-1.11l14.55-8.4c0.4-0.23,0.88-0.23,1.28,0l14.55,8.4
		c0.39,0.23,0.64,0.65,0.64,1.11V231.47z"/>
	<g>
		<path class="st0" d="M439.83,214.23c1.58-0.92,2.55-2.6,2.55-4.42v-11.85c0-1.82-0.97-3.51-2.55-4.43l-42.1-24.44
			c-1.58-0.92-3.54-0.92-5.13-0.01l-42.36,24.45c-1.58,0.91-2.56,2.6-2.56,4.43v48.9c0,1.84,0.99,3.54,2.58,4.45l42.09,23.99
			c1.55,0.89,3.45,0.9,5.02,0.03l25.46-14.15c0.81-0.45,1.31-1.3,1.32-2.22c0.01-0.92-0.48-1.78-1.28-2.24l-42.63-24.46
			c-0.8-0.46-1.29-1.3-1.29-2.22v-15.33c0-0.91,0.49-1.76,1.28-2.22l13.27-7.65c0.79-0.46,1.76-0.46,2.55,0l13.27,7.65
			c0.79,0.46,1.28,1.3,1.28,2.22v12.06c0,0.92,0.49,1.76,1.28,2.22c0.79,0.46,1.77,0.45,2.56-0.01L439.83,214.23z"/>
		<path class="st1" d="M394.54,211.94c0.3-0.18,0.68-0.18,0.98,0l8.13,4.69c0.3,0.18,0.49,0.5,0.49,0.85v9.39
			c0,0.35-0.19,0.67-0.49,0.85l-8.13,4.69c-0.3,0.18-0.68,0.18-0.98,0l-8.12-4.69c-0.3-0.18-0.49-0.5-0.49-0.85v-9.39
			c0-0.35,0.19-0.67,0.49-0.85L394.54,211.94z"/>
	</g>
	<g>
		<defs>
			<path id="XMLID_143_" d="M165.81,169.33c-1.57-0.91-3.51-0.91-5.09,0l-42.13,24.31c-1.58,0.91-2.55,2.59-2.55,4.41v48.67
				c0,1.82,0.97,3.5,2.54,4.41l42.13,24.33c1.58,0.91,3.52,0.91,5.09,0l42.12-24.33c1.57-0.91,2.54-2.59,2.54-4.41v-48.67
				c0-1.82-0.97-3.5-2.55-4.41L165.81,169.33z"/>
		</defs>
		<linearGradient id="XMLID_2_" gradientUnits="userSpaceOnUse" x1="180.3959" y1="187.4421" x2="142.331" y2="265.0945">
			<stop  offset="0" style="stop-color:#3F873F"/>
			<stop  offset="0.3296" style="stop-color:#3F8B3D"/>
			<stop  offset="0.6367" style="stop-color:#3E9638"/>
			<stop  offset="0.9341" style="stop-color:#3DA92E"/>
			<stop  offset="1" style="stop-color:#3DAE2B"/>
		</linearGradient>
		<use xlink:href="#XMLID_143_"  style="overflow:visible;fill-rule:evenodd;clip-rule:evenodd;fill:url(#XMLID_2_);"/>
		<clipPath id="XMLID_3_">
			<use xlink:href="#XMLID_143_"  style="overflow:visible;"/>
		</clipPath>
		<g class="st2">
			<path class="st3" d="M160.64,169.33l-42.22,24.31c-1.58,0.91-2.72,2.59-2.72,4.41v48.67c0,1.2,0.51,2.34,1.31,3.24l47.44-81.15
				C163.17,168.49,161.8,168.67,160.64,169.33z"/>
			<path class="st3" d="M164.68,275.96c0.41-0.11,0.81-0.28,1.19-0.49l42.18-24.33c1.57-0.91,2.65-2.59,2.65-4.41v-48.67
				c0-1.34-0.6-2.6-1.54-3.53L164.68,275.96z"/>
			<linearGradient id="SVGID_1_" gradientUnits="userSpaceOnUse" x1="156.8518" y1="228.081" x2="263.6591" y2="149.1661">
				<stop  offset="0.1376" style="stop-color:#3F873F"/>
				<stop  offset="0.4016" style="stop-color:#52A044"/>
				<stop  offset="0.7129" style="stop-color:#64B749"/>
				<stop  offset="0.9081" style="stop-color:#6ABF4B"/>
			</linearGradient>
			<path class="st4" d="M208.02,193.65l-42.25-24.31c-0.42-0.24-0.86-0.41-1.32-0.53l-47.44,81.15c0.41,0.46,0.89,0.86,1.42,1.17
				l42.32,24.33c1.2,0.69,2.62,0.85,3.93,0.49l44.47-81.44C208.82,194.19,208.44,193.89,208.02,193.65z"/>
		</g>
		<g class="st2">
			<path class="st3" d="M210.69,246.72v-48.67c0-1.82-1.1-3.5-2.67-4.41l-42.25-24.31c-0.49-0.28-1.01-0.46-1.55-0.57l46.32,79.13
				C210.63,247.51,210.69,247.12,210.69,246.72z"/>
			<path class="st3" d="M118.42,193.65c-1.58,0.91-2.72,2.59-2.72,4.41v48.67c0,1.82,1.16,3.5,2.73,4.41l42.32,24.33
				c1,0.57,2.15,0.78,3.26,0.63l-45.34-82.59L118.42,193.65z"/>
			<linearGradient id="SVGID_2_" gradientUnits="userSpaceOnUse" x1="114.5565" y1="160.5619" x2="211.9735" y2="160.5619">
				<stop  offset="0.0919" style="stop-color:#6ABF4B"/>
				<stop  offset="0.2871" style="stop-color:#64B749"/>
				<stop  offset="0.5984" style="stop-color:#52A044"/>
				<stop  offset="0.8624" style="stop-color:#3F873F"/>
			</linearGradient>
			<polygon class="st5" points="159.32,160.4 158.74,160.73 159.51,160.73 			"/>
			<linearGradient id="SVGID_3_" gradientUnits="userSpaceOnUse" x1="114.5565" y1="222.3791" x2="211.9735" y2="222.3791">
				<stop  offset="0.0919" style="stop-color:#6ABF4B"/>
				<stop  offset="0.2871" style="stop-color:#64B749"/>
				<stop  offset="0.5984" style="stop-color:#52A044"/>
				<stop  offset="0.8624" style="stop-color:#3F873F"/>
			</linearGradient>
			<path class="st6" d="M208.05,251.13c1.23-0.71,2.14-1.89,2.49-3.24l-46.32-79.13c-1.21-0.24-2.49-0.06-3.58,0.57l-41.97,24.17
				l45.34,82.59c0.65-0.09,1.28-0.3,1.86-0.63L208.05,251.13z"/>
			<linearGradient id="SVGID_4_" gradientUnits="userSpaceOnUse" x1="114.5565" y1="250.1897" x2="211.9735" y2="250.1897">
				<stop  offset="0.0919" style="stop-color:#6ABF4B"/>
				<stop  offset="0.2871" style="stop-color:#64B749"/>
				<stop  offset="0.5984" style="stop-color:#52A044"/>
				<stop  offset="0.8624" style="stop-color:#3F873F"/>
			</linearGradient>
			<polygon class="st7" points="211.97,250.35 211.69,249.87 211.69,250.51 			"/>
			<linearGradient id="SVGID_5_" gradientUnits="userSpaceOnUse" x1="114.5565" y1="262.7594" x2="211.9735" y2="262.7594">
				<stop  offset="0.0919" style="stop-color:#6ABF4B"/>
				<stop  offset="0.2871" style="stop-color:#64B749"/>
				<stop  offset="0.5984" style="stop-color:#52A044"/>
				<stop  offset="0.8624" style="stop-color:#3F873F"/>
			</linearGradient>
			<path class="st8" d="M208.05,251.13l-42.18,24.33c-0.58,0.33-1.21,0.54-1.86,0.63l0.84,1.53l46.85-27.12v-0.64l-1.16-1.98
				C210.19,249.24,209.27,250.42,208.05,251.13z"/>
			<linearGradient id="SVGID_6_" gradientUnits="userSpaceOnUse" x1="226.166" y1="185.1399" x2="166.0853" y2="307.7044">
				<stop  offset="0" style="stop-color:#3F873F"/>
				<stop  offset="0.3296" style="stop-color:#3F8B3D"/>
				<stop  offset="0.6367" style="stop-color:#3E9638"/>
				<stop  offset="0.9341" style="stop-color:#3DA92E"/>
				<stop  offset="1" style="stop-color:#3DAE2B"/>
			</linearGradient>
			<path class="st9" d="M208.05,251.13l-42.18,24.33c-0.58,0.33-1.21,0.54-1.86,0.63l0.84,1.53l46.85-27.12v-0.64l-1.16-1.98
				C210.19,249.24,209.27,250.42,208.05,251.13z"/>
		</g>
	</g>
</g>
</svg>
