<?xml version="1.0" encoding="utf-8"?>
<!-- Generator: Adobe Illustrator 24.1.3, SVG Export Plug-In . SVG Version: 6.00 Build 0)  -->
<svg version="1.1" id="Layer_1" xmlns="http://www.w3.org/2000/svg" xmlns:xlink="http://www.w3.org/1999/xlink" x="0px" y="0px"
	 viewBox="0 0 2500 2500" style="enable-background:new 0 0 2500 2500;" xml:space="preserve">
<style type="text/css">
	.st0{fill:#0ACF83;}
	.st1{fill:#A259FF;}
	.st2{fill:#F24E1E;}
	.st3{fill:#FF7262;}
	.st4{fill:#1ABCFE;}
</style>
<desc>Created using Figma</desc>
<path id="path0_fill" class="st0" d="M833.33,2500c230,0,416.67-186.67,416.67-416.67v-416.67H833.33
	c-230,0-416.67,186.67-416.67,416.67S603.33,2500,833.33,2500z"/>
<path id="path1_fill" class="st1" d="M416.67,1250c0-230,186.67-416.67,416.67-416.67H1250v833.33H833.33
	C603.33,1666.67,416.67,1480,416.67,1250z"/>
<path id="path1_fill_1_" class="st2" d="M416.67,416.67C416.67,186.67,603.33,0,833.33,0H1250v833.33H833.33
	C603.33,833.33,416.67,646.67,416.67,416.67z"/>
<path id="path2_fill" class="st3" d="M1250,0h416.67c230,0,416.67,186.67,416.67,416.67s-186.67,416.67-416.67,416.67H1250V0z"/>
<path id="path3_fill" class="st4" d="M2083.33,1250c0,230-186.67,416.67-416.67,416.67S1250,1480,1250,1250
	s186.67-416.67,416.67-416.67S2083.33,1020,2083.33,1250z"/>
</svg>
