<?xml version="1.0" encoding="utf-8"?>
<!-- Generator: Adobe Illustrator 24.1.3, SVG Export Plug-In . SVG Version: 6.00 Build 0)  -->
<svg version="1.1" id="Layer_1" xmlns="http://www.w3.org/2000/svg" xmlns:xlink="http://www.w3.org/1999/xlink" x="0px" y="0px"
	 viewBox="0 0 272.96 272.96" style="enable-background:new 0 0 272.96 272.96;" xml:space="preserve">
<style type="text/css">
	.st0{fill:#413000;}
	.st1{fill:#F05133;}
</style>
<path class="st0" d="M163.59,118.28c-5.99,0-10.44,2.94-10.44,10.01c0,5.33,2.94,9.03,10.12,9.03c6.09,0,10.22-3.59,10.22-9.25
	C173.49,121.66,169.79,118.28,163.59,118.28L163.59,118.28z M151.62,168.22c-1.42,1.74-2.83,3.58-2.83,5.76
	c0,4.35,5.54,5.66,13.16,5.66c6.31,0,14.9-0.44,14.9-6.31c0-3.49-4.13-3.7-9.36-4.03L151.62,168.22L151.62,168.22z M183.82,118.61
	c1.96,2.5,4.02,5.98,4.02,10.99c0,12.07-9.46,19.15-23.17,19.15c-3.49,0-6.64-0.43-8.6-0.98l-3.59,5.76l10.66,0.65
	c18.82,1.2,29.91,1.74,29.91,16.21c0,12.51-10.99,19.58-29.92,19.58c-19.69,0-27.2-5-27.2-13.6c0-4.9,2.18-7.5,5.98-11.1
	c-3.59-1.52-4.79-4.24-4.79-7.17c0-2.39,1.2-4.57,3.16-6.64c1.96-2.07,4.13-4.13,6.74-6.53c-5.33-2.61-9.36-8.27-9.36-16.32
	c0-12.51,8.27-21.1,24.91-21.1c4.68,0,7.51,0.43,10.01,1.09h21.21v9.24L183.82,118.61"/>
<path class="st0" d="M212.98,98.84c-6.2,0-9.79-3.59-9.79-9.8c0-6.2,3.59-9.57,9.79-9.57c6.31,0,9.9,3.38,9.9,9.57
	C222.88,95.25,219.29,98.84,212.98,98.84z M198.94,164.22v-8.59l5.55-0.76c1.52-0.22,1.74-0.54,1.74-2.18V120.7
	c0-1.19-0.32-1.96-1.42-2.28l-5.87-2.07l1.2-8.81h22.52v45.14c0,1.74,0.1,1.96,1.74,2.18l5.55,0.76v8.59L198.94,164.22"/>
<path class="st0" d="M272.97,160c-4.68,2.28-11.53,4.35-17.74,4.35c-12.95,0-17.84-5.22-17.84-17.51v-28.5c0-0.65,0-1.09-0.87-1.09
	h-7.61v-9.68c9.58-1.09,13.38-5.88,14.58-17.74h10.34v15.45c0,0.76,0,1.09,0.87,1.09h15.34v10.88h-16.21v26
	c0,6.42,1.52,8.92,7.4,8.92c3.05,0,6.2-0.76,8.81-1.74L272.97,160"/>
<path class="st1" d="M111.78,131.45L62.03,81.71c-2.86-2.86-7.51-2.86-10.37,0L41.33,92.04l13.1,13.1c3.05-1.03,6.54-0.34,8.96,2.09
	c2.44,2.44,3.12,5.96,2.07,9.02l12.63,12.63c3.06-1.05,6.58-0.37,9.02,2.07c3.41,3.41,3.41,8.93,0,12.35
	c-3.41,3.41-8.94,3.41-12.35,0c-2.56-2.57-3.2-6.33-1.9-9.49l-11.78-11.78l0,30.99c0.83,0.41,1.62,0.96,2.31,1.65
	c3.41,3.41,3.41,8.93,0,12.35c-3.41,3.41-8.94,3.41-12.35,0c-3.41-3.41-3.41-8.94,0-12.35c0.84-0.84,1.82-1.48,2.86-1.9v-31.28
	c-1.04-0.42-2.01-1.06-2.86-1.9c-2.58-2.58-3.21-6.37-1.88-9.54L36.26,97.12l-34.11,34.1c-2.87,2.87-2.87,7.51,0,10.38l49.74,49.74
	c2.86,2.86,7.51,2.86,10.38,0l49.51-49.5C114.64,138.97,114.64,134.32,111.78,131.45"/>
</svg>
